<?xml version="1.0" standalone="no"?>
<!DOCTYPE svg PUBLIC "-//W3C//DTD SVG 20010904//EN"
 "http://www.w3.org/TR/2001/REC-SVG-20010904/DTD/svg10.dtd">
<svg version="1.0" xmlns="http://www.w3.org/2000/svg"
 width="353.000000pt" height="353.000000pt" viewBox="0 0 353.000000 353.000000"
 preserveAspectRatio="xMidYMid meet">
<metadata>
Created by potrace 1.11, written by Peter Selinger 2001-2013
</metadata>
<g transform="translate(0.000000,353.000000) scale(0.100000,-0.100000)"
fill="#000000" stroke="none">
<path d="M1 2573 c1 -527 4 -982 6 -1011 4 -43 9 -55 26 -61 20 -7 19 -8 -6
-15 l-27 -6 0 -325 c0 -195 4 -325 9 -325 18 0 63 20 77 35 19 19 54 20 54 1
0 -14 49 -36 81 -36 10 0 20 -4 23 -9 3 -5 -22 -7 -57 -5 -79 4 -118 -3 -111
-21 4 -10 -5 -15 -33 -17 l-38 -3 -3 -60 c-4 -74 3 -102 27 -110 13 -4 18 -14
17 -31 l-1 -25 -24 28 c-18 20 -22 22 -17 8 17 -42 19 -58 8 -51 -9 5 -12 -61
-12 -263 l0 -271 1433 1 c808 0 1423 4 1412 9 -16 7 -11 9 20 9 29 1 36 -2 25
-9 -10 -6 97 -10 313 -10 l327 0 -1 90 c-1 88 -2 90 -23 84 -11 -4 -24 -11
-27 -17 -4 -6 -34 -8 -73 -5 -53 5 -64 3 -56 -7 8 -10 2 -15 -27 -22 -29 -7
-51 -4 -92 9 -51 17 -59 17 -107 3 -29 -8 -82 -15 -118 -15 -60 0 -85 -11 -53
-23 6 -3 -1 -6 -18 -6 -22 -1 -26 2 -15 9 22 13 6 22 -53 31 -28 4 -70 10 -92
14 -22 4 -37 4 -33 0 4 -5 29 -12 55 -17 90 -17 103 -20 103 -28 0 -12 -82 -1
-232 30 -34 6 -74 5 -142 -5 -95 -14 -151 -12 -163 8 -4 6 10 7 38 3 24 -3 51
-2 59 4 11 7 1 10 -37 10 -28 0 -54 4 -58 9 -3 6 17 7 50 4 58 -6 61 -4 45 28
-16 28 10 35 76 19 43 -11 71 -11 141 -1 120 16 146 20 161 26 6 2 12 -1 12
-7 0 -13 145 -3 203 14 28 9 41 8 49 0 14 -14 178 -17 178 -3 0 5 30 12 68 15
37 4 82 10 101 13 24 4 32 2 27 -6 -5 -7 3 -11 23 -11 l31 0 0 116 c0 81 -3
113 -11 108 -8 -4 -8 0 0 15 9 16 9 26 1 39 -10 15 -11 15 -5 -3 5 -16 4 -18
-6 -7 -21 20 -38 14 -33 -12 2 -14 -3 -29 -12 -37 -13 -11 -14 -9 -8 15 6 26
5 28 -17 21 -13 -4 -26 -12 -27 -17 -2 -5 -11 -1 -20 9 -10 10 -25 19 -35 21
-15 3 -17 -1 -12 -17 4 -12 2 -21 -4 -21 -6 0 -11 5 -11 11 0 8 -4 8 -14 0
-15 -13 -110 -5 -102 8 3 4 -4 7 -14 8 -11 1 -22 -2 -25 -8 -4 -5 -13 -9 -22
-9 -10 0 -14 6 -10 20 3 11 2 20 -3 20 -4 0 -10 -10 -13 -22 -4 -12 -9 -19
-13 -15 -4 4 -12 2 -19 -3 -9 -8 -188 -22 -277 -21 -9 0 -19 -7 -22 -15 -3 -8
-11 -14 -17 -14 -9 0 -9 3 0 14 15 18 -3 25 -44 15 -16 -4 -24 -7 -18 -8 20
-2 10 -25 -12 -32 -11 -3 -28 -1 -37 5 -15 9 -14 12 10 23 25 12 24 12 -19 8
-34 -4 -50 -1 -59 10 -11 14 -14 13 -26 -2 -7 -10 -14 -13 -14 -8 0 6 -17 10
-37 9 -59 -1 -72 5 -76 40 -4 29 -4 29 -5 -6 -2 -26 -7 -38 -17 -38 -8 0 -15
4 -15 9 0 10 -26 9 -36 -2 -15 -14 -20 -6 -18 26 l3 32 -8 -35 c-10 -36 -6
-54 10 -45 5 4 9 -1 9 -10 0 -13 4 -14 21 -4 17 9 20 8 14 -2 -6 -9 -3 -10 9
-6 14 5 17 3 12 -8 -5 -13 -1 -13 27 2 36 19 81 27 72 12 -4 -5 -12 -9 -19 -9
-8 0 -25 -15 -40 -34 l-26 -35 83 4 c45 2 168 7 272 11 227 10 415 7 432 -7 7
-6 18 -7 24 -3 9 5 10 2 6 -9 -3 -9 -2 -19 3 -22 33 -20 -10 -25 -227 -25
-131 0 -249 -3 -263 -7 -24 -7 -23 -8 15 -20 36 -11 24 -12 -100 -8 -77 3
-232 8 -345 11 -151 5 -208 10 -218 20 -7 8 -20 14 -28 14 -20 0 -17 -28 4
-32 9 -2 -15 -4 -55 -4 -40 -1 -70 3 -67 7 6 10 -10 12 -88 9 l-58 -2 0 46 0
46 45 0 c25 0 45 -4 45 -10 0 -5 -12 -10 -27 -10 -21 -1 -24 -3 -13 -9 8 -5
90 -12 181 -15 l166 -7 7 23 c3 13 6 26 6 31 0 16 -48 25 -86 16 -92 -21 -204
-21 -204 1 0 14 39 47 77 65 30 15 32 18 18 32 -10 9 -12 20 -7 27 5 6 15 45
22 86 15 87 34 130 58 130 14 0 15 2 2 10 -12 7 -12 12 -1 34 12 21 17 24 35
14 12 -6 18 -7 14 -3 -4 5 -2 15 5 24 11 14 10 14 -6 2 -9 -8 -20 -11 -23 -8
-8 8 6 47 17 47 5 0 9 9 9 19 0 11 7 27 16 35 14 15 14 16 -3 17 -16 0 -15 2
3 11 21 10 53 82 42 94 -11 10 -47 -20 -38 -31 6 -7 -6 -10 -38 -11 -27 0 -47
-5 -50 -12 -3 -10 -7 -10 -18 -1 -15 13 -16 12 -32 -61 -9 -38 -10 -31 -6 50
2 52 6 178 9 280 7 226 15 362 23 375 4 6 5 20 3 33 -3 30 91 128 111 116 18
-12 40 -14 52 -6 6 4 16 7 21 7 6 0 9 15 7 33 -1 21 2 31 8 27 5 -3 10 -1 10
4 0 6 7 11 15 11 14 0 14 3 0 24 -14 21 -14 24 0 29 8 4 15 13 15 22 0 8 6 15
13 15 8 0 12 18 11 57 -1 73 17 97 46 63 11 -13 20 -18 20 -11 0 7 5 9 10 6 6
-3 10 -1 10 5 0 7 -7 10 -15 7 -8 -4 -17 -2 -19 2 -3 4 20 7 51 6 31 -2 50 1
43 5 -9 6 -8 13 6 29 21 24 34 27 34 8 0 -8 9 -22 20 -32 10 -9 18 -22 17 -29
-3 -18 -20 -26 -34 -14 -10 8 -13 3 -13 -21 0 -52 31 -95 61 -85 10 2 19 -2
23 -11 4 -11 2 -14 -7 -8 -6 4 -32 8 -57 10 -33 2 -40 0 -25 -7 11 -5 14 -9 6
-9 -8 -1 -11 -7 -7 -17 3 -8 2 -12 -4 -9 -13 8 -13 -1 0 -26 6 -10 8 -19 6
-19 -3 0 -12 12 -19 26 -12 22 -15 24 -20 10 -4 -11 -3 -15 4 -10 7 4 9 -1 7
-12 -2 -11 -11 -18 -19 -16 -9 2 -7 -3 6 -16 11 -11 24 -16 29 -12 11 11 36 1
36 -13 0 -6 -3 -7 -7 -4 -3 4 -17 0 -29 -8 -21 -14 -23 -14 -17 1 4 12 2 15
-8 12 -21 -7 -17 -33 6 -33 33 0 43 -12 43 -54 0 -22 6 -49 11 -60 16 -29 14
-38 -11 -45 -18 -5 -20 -8 -9 -15 7 -5 10 -14 6 -21 -6 -9 -10 -9 -17 1 -7 10
-8 9 -5 -6 3 -11 8 -38 12 -59 l6 -39 -36 6 c-42 7 -39 -8 4 -16 31 -7 31 -5
17 -173 -6 -63 1 -80 51 -132 17 -17 16 -53 -2 -177 -8 -55 -15 -103 -15 -107
0 -5 -7 -8 -15 -8 -8 0 -15 -7 -15 -16 0 -14 3 -14 15 -4 13 10 15 9 15 -11
l0 -23 16 22 c17 25 44 30 44 8 0 -26 21 -28 41 -5 19 23 26 45 10 35 -5 -3
-12 1 -15 10 -8 22 -8 46 2 41 6 -4 7 57 3 136 -1 25 -21 21 -22 -5 0 -22 -1
-22 -11 2 -6 14 -13 41 -15 60 -3 20 -17 46 -33 63 -17 17 -26 36 -23 46 4 13
3 13 -5 2 -7 -10 -11 -2 -14 29 -2 24 2 49 9 59 7 9 13 47 13 91 0 79 24 148
49 142 7 -1 10 1 7 6 -3 5 -1 22 4 38 4 16 9 23 9 16 1 -7 8 -20 16 -28 18
-18 20 -38 3 -28 -8 5 -9 2 -5 -10 4 -10 7 -20 7 -22 0 -2 4 -4 10 -4 5 0 6 7
3 17 -4 11 -3 14 6 9 8 -5 12 -3 10 5 -3 25 1 39 11 39 6 0 10 -7 10 -15 0 -8
4 -15 10 -15 5 0 8 -34 7 -80 -1 -44 -5 -80 -8 -80 -4 0 -9 -9 -12 -20 -7 -28
9 -25 17 3 l6 22 13 -21 c22 -37 55 -74 66 -74 35 0 -9 -53 -68 -80 -27 -13
-54 -34 -60 -47 -10 -21 -6 -20 52 12 95 52 107 67 107 131 0 49 3 57 35 86
19 18 37 44 38 58 3 18 11 26 30 28 25 3 26 6 21 44 -5 30 -3 39 6 33 15 -9 3
36 -12 46 -5 3 -2 11 6 18 8 7 13 18 10 26 -8 19 -79 12 -105 -11 -18 -15 -21
-16 -17 -3 4 9 2 22 -3 30 -7 11 -9 11 -9 -3 0 -10 -4 -18 -10 -18 -5 0 -10 5
-10 11 0 6 -7 9 -14 6 -10 -4 -13 -1 -9 9 3 7 11 14 18 14 20 0 30 21 15 30
-8 5 -9 10 -1 14 6 4 13 -4 17 -19 6 -25 18 -32 28 -16 7 11 46 2 46 -10 0 -5
5 -9 11 -9 5 0 7 4 4 10 -3 5 6 21 20 36 14 14 23 30 19 35 -3 6 -12 1 -21
-11 -11 -15 -18 -18 -27 -11 -7 6 -16 8 -19 4 -4 -3 -7 3 -7 15 0 12 -5 22
-10 22 -6 0 -9 3 -9 8 5 29 -4 33 -18 7 -9 -17 -18 -25 -20 -17 -3 6 -9 12
-15 12 -6 0 -5 -6 2 -15 10 -13 10 -19 -2 -33 -9 -9 -13 -23 -10 -31 3 -10 0
-12 -10 -8 -9 3 -20 1 -25 -4 -6 -6 -9 4 -9 28 1 21 6 41 11 45 6 5 3 8 -7 8
-12 0 -15 5 -11 16 3 9 0 20 -8 25 -11 7 -10 9 4 9 33 0 44 87 12 93 -13 3 -7
28 13 50 17 19 28 62 13 53 -5 -3 -12 1 -15 10 -8 22 -8 26 3 19 5 -3 12 4 16
15 4 11 10 18 15 15 4 -3 6 5 2 17 -4 15 -2 19 7 13 8 -4 11 -21 9 -40 -3 -25
0 -31 10 -27 8 2 11 13 9 23 -3 11 -1 19 4 19 5 0 9 -5 9 -11 0 -7 10 -9 25
-7 14 3 28 1 31 -4 9 -14 25 3 19 21 -3 11 4 26 20 41 29 27 33 42 8 33 -27
-10 -40 -27 -35 -42 3 -10 0 -12 -13 -7 -13 5 -16 2 -11 -9 3 -9 2 -13 -4 -10
-14 9 -1 54 21 76 24 24 26 47 2 28 -12 -10 -15 -10 -9 -1 9 15 -20 46 -35 36
-7 -4 -6 3 2 17 11 21 14 21 17 6 2 -9 8 -14 14 -11 7 4 8 2 4 -4 -4 -7 -1
-12 7 -12 8 0 17 -6 20 -13 2 -7 20 -14 38 -15 l34 -3 -39 40 c-29 30 -37 45
-33 62 3 12 0 28 -9 36 -16 16 -19 53 -4 53 6 0 10 5 10 11 0 6 -6 9 -14 6
-23 -9 -26 3 -5 24 10 10 19 25 19 31 -1 8 -6 6 -14 -5 -17 -22 -96 -22 -96 0
0 7 7 13 15 13 8 0 15 8 14 18 0 9 -3 12 -5 5 -7 -15 -34 -5 -56 22 -14 17
-19 18 -30 6 -11 -12 -11 -13 2 -7 9 5 9 2 -2 -7 -10 -8 -16 -16 -13 -18 2 -3
-5 -5 -15 -6 -11 -1 -20 3 -20 8 0 5 -11 2 -25 -7 -27 -17 -45 -12 -44 14 0
11 3 12 6 5 9 -23 32 -14 39 15 3 15 8 34 10 42 4 12 3 13 -7 3 -17 -17 -26
-16 -32 1 -4 11 -1 13 11 8 12 -4 8 5 -11 27 -26 31 -27 34 -10 46 27 20 44
-2 18 -22 -14 -11 -15 -14 -4 -10 9 3 22 0 28 -6 9 -9 14 -9 20 2 6 9 11 10
15 2 12 -19 25 -12 21 10 -3 12 0 29 5 38 8 14 11 13 16 -6 3 -13 12 -23 20
-23 19 0 26 17 9 24 -8 3 -15 15 -15 26 0 13 -7 20 -20 20 -11 0 -20 5 -20 10
0 15 -26 12 -40 -5 -14 -17 -30 -20 -30 -5 0 6 8 10 18 10 13 1 12 4 -7 14
-25 14 -14 31 13 20 9 -3 16 -1 16 5 0 15 23 14 38 -1 18 -18 55 -21 49 -4 -4
9 2 17 14 21 23 8 25 25 3 25 -11 0 -15 6 -11 19 2 10 0 26 -6 36 -9 16 -11
15 -22 -11 -8 -19 -9 -35 -3 -47 5 -10 7 -21 4 -24 -2 -3 -12 12 -21 33 -14
35 -16 36 -29 18 -11 -14 -11 -21 -3 -26 7 -4 8 -8 2 -8 -25 0 -36 18 -29 45
5 19 3 26 -4 21 -6 -4 -16 3 -22 14 -9 16 -8 22 5 26 8 3 12 10 9 15 -3 5 2
12 10 15 25 10 19 26 -6 19 l-23 -7 23 17 c23 17 30 45 12 45 -6 0 -13 -7 -16
-15 -5 -12 -10 -13 -20 -4 -8 6 -14 8 -14 3 0 -5 -11 -14 -25 -21 -22 -10 -25
-9 -25 8 0 26 -16 24 -24 -3 -6 -21 -7 -21 -17 -5 -8 14 -4 22 18 42 24 21 25
24 9 25 -15 0 -16 3 -6 15 6 8 9 19 5 26 -5 8 -1 9 14 4 15 -5 21 -2 21 9 0 9
8 16 17 16 13 0 14 -3 5 -12 -9 -9 -3 -15 26 -25 20 -8 53 -15 72 -17 19 -2
29 -2 23 1 -17 6 14 53 35 53 15 0 81 20 92 28 2 2 -2 7 -10 12 -11 7 -11 11
-1 23 13 17 51 11 51 -8 0 -15 88 -25 170 -19 146 10 173 13 179 22 9 13 101
24 101 12 0 -6 18 -1 40 10 l40 20 -10 -25 c-8 -22 -7 -25 13 -24 12 0 16 3
10 6 -7 2 -13 9 -13 14 0 14 28 11 33 -3 3 -8 6 -6 6 5 1 10 8 17 19 16 10 0
12 -3 5 -6 -7 -2 -13 -9 -13 -15 0 -6 6 -6 15 2 12 10 15 44 15 186 l0 174
-1765 0 -1765 0 1 -957z m2449 917 c0 -5 -4 -10 -10 -10 -5 0 -10 5 -10 10 0
6 5 10 10 10 6 0 10 -4 10 -10z m770 -190 c0 -5 -2 -10 -4 -10 -3 0 -8 5 -11
10 -3 6 -1 10 4 10 6 0 11 -4 11 -10z m-260 -71 c0 -5 -7 -9 -15 -9 -15 0 -20
12 -9 23 8 8 24 -1 24 -14z m-1398 -86 c-13 -3 -19 -9 -16 -15 4 -7 2 -8 -5
-4 -17 11 -3 26 22 25 22 -2 22 -2 -1 -6z m128 -52 c0 -14 1 -14 10 -1 5 8 10
11 10 5 0 -5 -4 -17 -9 -24 -8 -12 -11 -9 -16 11 -8 30 -41 44 -49 21 -4 -10
-14 -13 -29 -9 -18 4 -23 2 -22 -12 0 -10 5 -23 9 -31 5 -7 4 -17 -3 -22 -6
-5 -9 -6 -6 -3 7 10 -15 45 -24 40 -5 -3 -6 -18 -4 -33 3 -17 1 -23 -4 -16 -6
8 -14 9 -23 3 -13 -8 -13 -10 -1 -10 8 0 12 -3 8 -6 -3 -3 -2 -16 3 -28 11
-29 -1 -49 -24 -40 -12 5 -16 13 -12 28 3 11 9 45 12 73 4 29 10 50 14 48 5
-3 6 -14 3 -25 -3 -11 -1 -20 5 -20 5 0 8 13 6 30 -2 16 1 32 6 35 6 3 7 -1 4
-9 -9 -23 5 -19 27 7 10 12 18 16 19 10 0 -7 7 -13 16 -13 10 0 14 6 11 14 -4
11 1 13 19 10 19 -3 24 -1 19 8 -4 7 1 4 9 -6 9 -11 16 -27 16 -35z m30 39 c0
-5 -8 -10 -17 -10 -15 0 -16 2 -3 10 19 12 20 12 20 0z m740 -16 c0 -8 -5 -12
-10 -9 -6 4 -8 11 -5 16 9 14 15 11 15 -7z m54 2 c-10 -8 -21 -12 -24 -10 -5
6 21 24 34 24 6 0 1 -6 -10 -14z m-1043 -29 c-16 -16 -25 -1 -10 16 8 8 16 11
18 5 2 -5 -2 -15 -8 -21z m753 7 c3 -8 2 -12 -4 -9 -6 3 -10 10 -10 16 0 14 7
11 14 -7z m276 -9 c0 -2 -9 -3 -19 -2 -11 0 -18 5 -15 9 4 6 34 0 34 -7z
m-857 -10 c-3 -9 -8 -14 -10 -11 -3 3 -2 9 2 15 9 16 15 13 8 -4z m103 -7 c4
-6 3 -8 -4 -4 -20 12 -19 -9 1 -28 17 -16 19 -16 14 -3 -9 23 12 32 31 13 9
-9 11 -16 5 -16 -6 0 -14 6 -17 13 -3 6 -4 3 -3 -8 1 -14 -4 -20 -18 -20 -12
0 -19 6 -17 14 2 8 -3 11 -12 8 -15 -6 -16 9 -3 31 10 15 14 15 23 0z m710
-13 c14 -13 14 -15 0 -15 -9 0 -16 -3 -16 -7 0 -12 43 -53 57 -53 7 0 13 -6
13 -13 0 -17 -29 -56 -30 -39 0 6 -10 12 -22 13 -21 1 -22 1 -3 7 24 8 31 32
9 32 -8 0 -12 -4 -9 -10 7 -11 3 -12 -17 -5 -11 4 -14 37 -9 98 1 11 11 8 27
-8z m-456 -24 c0 -11 -6 -21 -12 -24 -10 -3 -10 -7 0 -19 10 -13 10 -17 0 -22
-7 -3 -2 -3 11 0 16 4 21 3 17 -5 -4 -6 -2 -11 3 -11 6 0 11 5 11 10 0 6 7 10
15 10 20 0 35 32 29 61 -2 13 -2 18 2 12 3 -7 12 -13 20 -13 8 0 14 -4 14 -10
0 -5 -5 -10 -12 -10 -6 0 -3 -7 8 -15 17 -13 17 -14 2 -15 -10 0 -18 -4 -18
-9 0 -5 -3 -18 -6 -28 -3 -10 1 -8 9 6 18 31 31 11 15 -24 -7 -16 -8 -29 -2
-33 5 -4 9 -22 10 -40 1 -27 -2 -32 -15 -27 -27 11 -33 10 -38 -2 -2 -6 6 -15
18 -18 22 -7 22 -8 4 -21 -10 -8 -13 -14 -7 -14 7 0 12 -6 12 -14 0 -10 -7
-12 -22 -8 -14 3 -19 2 -14 -6 4 -7 1 -12 -7 -12 -8 0 -17 -9 -20 -21 -3 -12
-10 -18 -16 -15 -6 4 -8 13 -5 20 3 7 -2 16 -10 19 -9 4 -16 13 -16 21 0 9 -8
14 -20 13 -11 -1 -20 -7 -20 -14 0 -7 -5 -13 -11 -13 -5 0 -7 -5 -3 -11 3 -6
1 -15 -7 -19 -10 -7 -10 -12 2 -26 12 -16 12 -17 -3 -11 -12 4 -18 2 -18 -7 0
-16 -30 -30 -40 -19 -15 16 -20 61 -8 65 7 3 12 24 12 51 0 26 4 47 8 47 4 0
7 16 5 35 -2 40 -15 44 -62 19 l-30 -15 23 24 c25 27 29 42 7 33 -9 -3 -15 0
-15 9 0 8 -6 15 -12 16 -10 0 -10 2 0 6 6 2 10 9 6 14 -7 11 -1 11 31 -1 17
-7 24 -7 20 0 -3 6 -12 10 -20 10 -7 0 -15 7 -19 15 -5 13 -2 14 17 4 17 -9
20 -9 10 1 -6 7 -9 19 -6 26 7 20 -27 6 -49 -19 -20 -23 -24 -11 -5 14 24 32
97 34 97 3 0 -18 19 -18 26 -1 3 9 16 12 34 9 22 -3 30 0 30 11 0 14 13 24 33
26 4 1 7 -8 7 -18z m247 11 c9 -6 3 -17 -22 -41 -19 -18 -35 -27 -35 -20 0 6
11 22 25 35 l25 23 -28 4 c-26 4 -26 4 -2 5 14 1 31 -2 37 -6z m-52 -22 c-3
-5 -10 -10 -16 -10 -5 0 -9 5 -9 10 0 6 7 10 16 10 8 0 12 -4 9 -10z m-478
-25 c-15 -16 -22 -11 -13 10 3 9 10 13 16 10 6 -4 5 -11 -3 -20z m541 -50 c-3
-3 -9 2 -12 12 -6 14 -5 15 5 6 7 -7 10 -15 7 -18z m-813 -30 c0 -34 -30 -43
-57 -18 -17 16 -17 17 9 35 36 23 48 19 48 -17z m1205 15 c0 -5 -4 -10 -10
-10 -5 0 -10 5 -10 10 0 6 5 10 10 10 6 0 10 -4 10 -10z m-1130 -20 c0 -5 -7
-7 -15 -4 -8 4 -15 8 -15 10 0 2 7 4 15 4 8 0 15 -4 15 -10z m-140 -45 c10
-13 9 -15 -8 -15 -15 0 -20 5 -16 15 4 8 7 15 9 15 1 0 8 -7 15 -15z m55 5 c3
-5 1 -10 -4 -10 -6 0 -11 5 -11 10 0 6 2 10 4 10 3 0 8 -4 11 -10z m722 -62
c-3 -8 -6 -5 -6 6 -1 11 2 17 5 13 3 -3 4 -12 1 -19z m-657 8 c0 -3 -4 -8 -10
-11 -5 -3 -10 -1 -10 4 0 6 5 11 10 11 6 0 10 -2 10 -4z m722 -31 c0 -5 -5
-11 -11 -13 -6 -2 -11 4 -11 13 0 9 5 15 11 13 6 -2 11 -8 11 -13z m-662 -10
c0 -8 5 -15 10 -15 15 0 12 -27 -6 -44 -19 -20 -29 -20 -48 -1 -8 8 -22 12
-31 8 -15 -5 -16 -3 -6 15 7 14 8 23 1 27 -21 13 -8 22 35 23 34 2 45 -1 45
-13z m-1514 -20 c1 -7 -4 -16 -12 -19 -15 -6 -18 3 -8 29 7 17 17 13 20 -10z
m2604 -62 c-1 -18 -18 -35 -24 -24 -4 6 -4 16 -1 21 7 12 25 13 25 3z m35 -13
c-3 -5 -10 -10 -16 -10 -5 0 -9 5 -9 10 0 6 7 10 16 10 8 0 12 -4 9 -10z m45
6 c0 -2 -7 -9 -15 -16 -13 -11 -14 -10 -9 4 5 14 24 23 24 12z m-1922 -118
c17 -17 15 -28 -4 -28 -10 0 -14 -6 -11 -14 4 -9 -2 -17 -14 -21 -33 -11 -36
5 -6 27 22 16 25 23 16 34 -14 17 2 19 19 2z m1763 -67 c-6 -10 -7 -21 -4 -25
3 -3 1 -6 -5 -6 -7 0 -12 3 -12 6 0 9 20 44 26 44 2 0 0 -8 -5 -19z m49 5 c0
-8 -7 -16 -15 -20 -15 -5 -21 14 -8 27 11 12 23 8 23 -7z m10 -30 c0 -3 -4 -8
-10 -11 -5 -3 -10 -1 -10 4 0 6 5 11 10 11 6 0 10 -2 10 -4z m59 -17 c-7 -4
-17 -5 -22 -2 -5 3 -3 9 4 14 7 4 17 5 22 2 5 -3 3 -9 -4 -14z m149 -33 c-7
-8 -15 -12 -17 -11 -5 6 10 25 20 25 5 0 4 -6 -3 -14z m-408 -26 c0 -5 -4 -10
-10 -10 -5 0 -10 5 -10 10 0 6 5 10 10 10 6 0 10 -4 10 -10z m100 -4 c0 -3 -4
-8 -10 -11 -5 -3 -10 -1 -10 4 0 6 5 11 10 11 6 0 10 -2 10 -4z m350 -6 c0 -5
-4 -10 -10 -10 -5 0 -10 5 -10 10 0 6 5 10 10 10 6 0 10 -4 10 -10z m6 -43
c13 17 13 17 14 -4 0 -15 -5 -20 -17 -19 -10 2 -18 9 -19 17 -1 11 0 11 3 1 4
-10 8 -9 19 5z m-39 -83 c-3 -3 -12 -4 -19 -1 -8 3 -5 6 6 6 11 1 17 -2 13 -5z
m-16 -56 c10 -18 9 -20 -5 -15 -9 4 -16 1 -16 -5 0 -6 -2 -9 -5 -7 -4 5 5 49
11 49 2 0 8 -10 15 -22z m42 -2 c4 -10 1 -13 -9 -9 -15 6 -19 23 -5 23 5 0 11
-7 14 -14z m-98 -30 c-11 -8 -24 -12 -28 -9 -11 7 12 23 32 23 11 0 9 -4 -4
-14z m-1945 -31 c0 -2 -9 -3 -19 -2 -11 0 -17 5 -15 9 3 4 -4 8 -16 8 -17 0
-19 -4 -14 -25 7 -28 -1 -32 -23 -10 -16 17 -37 10 -26 -8 4 -7 0 -6 -10 2
-16 12 -15 15 6 31 31 25 58 29 90 13 15 -7 27 -15 27 -18z m1770 25 c0 -5 -2
-10 -4 -10 -3 0 -8 5 -11 10 -3 6 -1 10 4 10 6 0 11 -4 11 -10z m45 0 c3 -5 1
-10 -4 -10 -6 0 -11 5 -11 10 0 6 2 10 4 10 3 0 8 -4 11 -10z m215 -11 c0 -5
-4 -9 -10 -9 -5 0 -10 7 -10 16 0 8 5 12 10 9 6 -3 10 -10 10 -16z m-363 5
c-3 -3 -12 -4 -19 -1 -8 3 -5 6 6 6 11 1 17 -2 13 -5z m84 -24 c5 0 9 -5 9
-11 0 -8 -5 -8 -15 1 -11 9 -15 9 -15 1 0 -7 -4 -9 -10 -6 -6 4 -5 13 3 26 10
16 13 17 15 4 2 -8 8 -15 13 -15z m131 -2 c-12 -12 -35 -1 -27 12 3 5 13 6 21
3 10 -4 12 -9 6 -15z m-82 2 c0 -5 -4 -10 -10 -10 -5 0 -10 5 -10 10 0 6 5 10
10 10 6 0 10 -4 10 -10z m220 -10 c0 -5 -5 -10 -11 -10 -5 0 -7 5 -4 10 3 6 8
10 11 10 2 0 4 -4 4 -10z m-395 -9 c3 -5 1 -12 -4 -15 -5 -3 -11 1 -15 9 -6
16 9 21 19 6z m-1735 -33 c0 -4 -8 -11 -17 -17 -13 -7 -23 -5 -35 6 -17 15
-17 17 -1 28 13 10 21 10 35 1 10 -6 18 -14 18 -18z m2015 22 c3 -5 1 -10 -4
-10 -6 0 -11 5 -11 10 0 6 2 10 4 10 3 0 8 -4 11 -10z m-1805 -174 c5 -5 10
-26 10 -45 0 -53 -83 -516 -116 -645 -5 -20 -13 -26 -33 -26 -25 0 -61 29 -61
50 0 6 -9 10 -20 10 -14 0 -18 -5 -13 -16 5 -13 2 -15 -18 -9 -13 4 -31 12
-39 18 -12 9 -13 9 -2 -3 14 -17 16 -34 2 -25 -5 3 -10 2 -10 -4 0 -6 -8 -7
-17 -4 -13 5 -15 2 -10 -11 6 -16 0 -17 -66 -14 -68 3 -72 5 -76 28 -3 23 -2
24 15 9 17 -15 20 -14 36 2 18 19 14 29 -14 29 -11 0 -16 5 -13 10 3 6 2 10
-4 10 -5 0 -13 -4 -16 -10 -8 -13 -45 -13 -45 -1 0 5 -3 16 -6 25 -5 13 1 16
27 16 23 0 30 3 22 11 -15 15 -89 7 -85 -10 4 -21 -28 -51 -55 -51 -12 0 -23
-5 -23 -11 0 -6 -7 -9 -15 -5 -9 3 -15 0 -15 -8 0 -7 -10 -21 -22 -32 -12 -10
-18 -13 -14 -6 11 18 -5 15 -21 -5 -8 -10 -12 -12 -8 -5 3 6 0 12 -7 13 -7 0
-3 5 9 11 13 6 23 17 23 25 0 7 4 13 9 13 10 0 24 31 16 38 -2 3 -11 -1 -20
-8 -13 -11 -14 -10 -9 4 5 12 14 16 27 12 12 -3 40 -2 64 1 33 4 43 10 43 25
0 15 -3 17 -19 8 -13 -6 -22 -7 -26 0 -3 5 6 12 20 16 18 4 24 11 20 21 -4 12
1 14 25 11 29 -4 40 5 20 17 -21 13 -9 24 20 18 23 -4 30 -2 30 10 0 8 8 18
18 22 16 6 16 7 -1 17 -18 10 -18 11 2 32 11 11 22 37 24 57 2 20 7 42 12 49
6 9 2 10 -16 4 -13 -4 -29 -7 -36 -7 -6 0 -14 -11 -18 -24 -5 -20 -8 -21 -25
-11 -11 7 -19 19 -17 27 1 8 -4 16 -10 18 -9 3 -13 -6 -13 -27 0 -17 -3 -29
-7 -27 -5 3 -9 -5 -9 -16 -5 -66 -19 -96 -44 -97 -3 0 -5 29 -5 65 0 36 4 65
8 65 5 0 5 6 1 13 -6 9 -5 9 7 0 10 -8 19 -9 29 -1 12 8 12 9 -2 4 -10 -3 -18
-1 -18 4 0 6 5 10 12 10 6 0 27 16 45 37 19 20 31 29 27 20 -3 -10 -2 -17 4
-17 12 0 24 28 17 39 -2 5 7 19 22 32 14 13 23 18 19 12 -11 -20 4 -15 22 7
20 25 70 38 107 29 6 -1 23 3 38 9 16 7 33 9 39 6 6 -4 14 -1 18 7 7 10 12 10
23 1 12 -10 13 -8 10 12 -4 20 0 26 21 32 14 3 26 10 26 16 0 5 -5 6 -12 2 -8
-5 -9 0 -6 14 4 12 3 22 0 23 -49 6 -54 4 -63 -18 -6 -15 -16 -23 -31 -22 -13
0 -17 3 -10 6 6 2 12 11 12 19 0 8 5 14 10 14 6 0 10 6 10 13 0 8 11 24 25 37
14 13 25 31 26 39 0 11 2 12 6 4 2 -7 9 -13 14 -13 6 0 7 5 4 10 -3 6 2 10 12
10 15 0 15 2 3 9 -8 6 -17 8 -21 5 -4 -2 -11 1 -15 8 -4 7 -4 10 1 6 4 -4 14
0 22 10 10 11 12 12 8 2 -5 -12 -4 -12 7 1 17 20 31 21 41 3 7 -12 10 -12 23
0 18 19 18 30 -1 22 -18 -6 -20 5 -3 22 8 8 19 -7 44 -65 18 -42 38 -81 44
-87z m1730 160 c0 -3 -4 -8 -10 -11 -5 -3 -10 -1 -10 4 0 6 5 11 10 11 6 0 10
-2 10 -4z m17 -42 c-9 -9 -28 6 -21 18 4 6 10 6 17 -1 6 -6 8 -13 4 -17z
m-1717 -49 c0 -8 -2 -15 -4 -15 -2 0 -6 7 -10 15 -3 8 -1 15 4 15 6 0 10 -7
10 -15z m-615 -95 c3 -5 1 -10 -4 -10 -6 0 -11 5 -11 10 0 6 2 10 4 10 3 0 8
-4 11 -10z m-53 -22 c-3 -14 -1 -19 6 -14 11 7 72 -19 72 -30 0 -4 -14 -4 -30
-2 -42 6 -45 -4 -9 -27 38 -26 34 -49 -9 -53 -25 -3 -39 2 -53 19 -20 23 -26
44 -9 34 6 -3 10 -1 10 4 0 6 -7 11 -15 11 -12 0 -13 4 -5 19 13 25 13 34 -1
25 -8 -4 -8 0 0 15 16 29 51 29 43 -1z m2298 7 c0 -8 -2 -15 -4 -15 -2 0 -6 7
-10 15 -3 8 -1 15 4 15 6 0 10 -7 10 -15z m-1511 -23 c8 -14 5 -18 -12 -19
-16 -2 -18 0 -8 6 7 5 10 14 7 20 -4 6 -5 11 -2 11 3 0 10 -8 15 -18z m1569
-37 c-3 -17 -34 -29 -49 -19 -14 8 2 33 17 27 9 -3 14 1 14 13 0 13 3 15 11 7
6 -6 9 -19 7 -28z m-2018 0 c0 -8 -4 -15 -10 -15 -5 0 -7 7 -4 15 4 8 8 15 10
15 2 0 4 -7 4 -15z m2041 -37 c-6 -15 -6 -29 -1 -34 12 -12 -10 -86 -32 -108
-17 -17 -18 -16 -18 3 0 12 5 21 12 21 9 0 9 3 0 12 -17 17 -15 28 6 22 15 -5
15 -4 1 5 -19 12 -14 64 7 82 8 6 14 19 14 27 0 11 3 13 10 6 7 -7 8 -19 1
-36z m-70 -51 c-13 -13 -15 -30 -2 -22 6 3 9 -3 8 -13 0 -10 -6 -19 -12 -19
-5 0 -18 -4 -27 -8 -11 -4 -18 -3 -18 4 0 6 9 11 20 11 11 0 20 4 20 10 0 5
-7 7 -15 4 -8 -4 -15 -1 -15 5 0 6 4 11 10 11 5 0 6 7 3 17 -5 12 -3 14 7 8 9
-5 11 -4 6 4 -6 9 -11 9 -22 0 -7 -6 -12 -15 -9 -19 3 -5 0 -12 -6 -16 -8 -4
-9 3 -4 27 10 44 25 53 48 28 14 -15 16 -24 8 -32z m-621 3 c0 -5 -4 -10 -10
-10 -5 0 -10 5 -10 10 0 6 5 10 10 10 6 0 10 -4 10 -10z m857 -12 c2 -18 0
-20 -7 -8 -12 18 -13 30 -2 30 4 0 9 -10 9 -22z m-1802 -42 c-11 -8 -16 -19
-12 -30 4 -10 1 -16 -8 -16 -17 0 -18 4 -9 38 4 14 14 22 27 22 20 0 20 -1 2
-14z m895 -7 c0 -6 15 -25 34 -42 28 -27 35 -42 41 -90 4 -31 5 -67 1 -80 -3
-13 -10 -89 -16 -168 -6 -79 -18 -205 -27 -279 -9 -74 -16 -145 -16 -157 1
-13 -3 -23 -7 -23 -14 0 -21 51 -10 66 7 7 8 19 4 26 -4 6 -9 26 -11 43 -2 16
-8 31 -13 33 -16 6 -12 22 5 22 17 0 18 6 5 35 -7 17 -9 17 -9 3 -1 -10 -8
-18 -16 -18 -11 0 -14 -7 -9 -25 6 -25 -10 -36 -19 -12 -4 9 -8 8 -16 -3 -5
-8 -13 -11 -17 -7 -4 3 -1 13 6 22 11 14 7 19 -12 16 -5 0 -8 3 -8 9 0 17 28
11 39 -7 9 -15 11 -13 11 12 0 17 3 64 6 105 5 73 4 78 -34 153 -22 42 -35 80
-31 83 5 3 7 10 4 15 -6 8 11 13 43 12 14 -1 16 13 2 22 -18 11 -11 24 18 31
33 8 54 23 46 35 -3 5 2 9 10 9 9 0 16 5 16 10 0 6 -7 10 -15 10 -8 0 -15 5
-15 10 0 6 -7 10 -15 10 -8 0 -15 -4 -15 -10 0 -5 -7 -7 -15 -4 -17 7 -20 40
-5 49 6 4 8 11 5 16 -4 5 -1 9 4 9 6 0 11 7 11 16 0 8 -4 12 -10 9 -5 -3 -10
1 -10 9 0 16 26 35 48 36 6 0 12 -5 12 -11z m-790 -29 c0 -11 -6 -19 -12 -17
-7 1 -13 -5 -13 -13 0 -8 -13 -22 -29 -31 -17 -9 -31 -21 -32 -28 -1 -6 0 -7
2 -2 3 6 12 7 20 4 8 -3 14 -1 14 5 0 20 41 -1 55 -29 19 -35 19 -40 1 -33 -9
3 -12 12 -9 22 5 11 2 14 -10 9 -11 -4 -14 -2 -10 9 7 18 -4 18 -23 0 -11 -11
-11 -16 -1 -20 6 -4 3 -5 -9 -2 -13 2 -25 -4 -32 -15 -10 -15 -7 -23 15 -43
27 -25 75 -42 91 -32 15 9 3 -212 -18 -339 -11 -66 -21 -133 -24 -150 -2 -16
-12 -73 -21 -125 -9 -52 -19 -116 -22 -142 -3 -27 -9 -48 -14 -48 -4 0 -5 16
-2 36 5 30 3 36 -16 41 -11 3 -21 9 -21 13 0 5 -10 11 -22 13 -21 4 -21 4 2 6
14 0 36 -6 49 -15 23 -16 23 -16 10 7 -7 13 -12 27 -11 32 1 4 -2 7 -7 7 -5 0
-12 10 -16 23 -8 26 -8 26 0 52 6 17 4 16 -13 -4 l-20 -24 -11 21 c-6 11 -23
22 -38 24 -15 2 -27 10 -29 20 -3 25 22 92 30 79 4 -6 12 -9 17 -5 6 4 2 14
-10 25 -22 21 -27 39 -11 39 6 0 10 -4 10 -10 0 -5 4 -10 8 -10 13 0 8 46 -7
64 -20 24 6 283 28 278 11 -2 12 0 4 10 -8 9 -8 44 -1 118 11 112 21 150 39
150 6 0 9 -7 5 -15 -3 -8 -1 -15 5 -15 5 0 12 6 15 14 3 8 11 13 18 10 7 -3
24 9 37 25 28 36 39 39 39 11z m1460 1 c0 -10 -30 -24 -37 -17 -3 3 -2 9 2 15
8 13 35 15 35 2z m-1418 -53 c-9 -9 -12 -7 -12 12 0 19 3 21 12 12 9 -9 9 -15
0 -24z m1591 11 c3 -13 1 -19 -6 -16 -15 5 -22 37 -9 37 5 0 12 -9 15 -21z
m-193 -41 c0 -5 -4 -6 -10 -3 -5 3 -7 0 -4 -8 5 -15 -13 -34 -23 -23 -3 3 -3
16 1 30 4 17 11 23 21 20 8 -4 15 -10 15 -16z m153 2 c3 -11 1 -20 -4 -20 -5
0 -9 9 -9 20 0 11 2 20 4 20 2 0 6 -9 9 -20z m-2483 0 c0 -5 -2 -10 -4 -10 -3
0 -8 5 -11 10 -3 6 -1 10 4 10 6 0 11 -4 11 -10z m1237 -85 c-4 -53 -11 -103
-15 -112 -9 -15 -82 -46 -90 -38 -2 2 3 35 12 74 9 38 16 85 16 104 0 43 18
59 74 66 5 1 6 -40 3 -94z m-1317 55 c0 -5 -7 -10 -15 -10 -8 0 -15 5 -15 10
0 6 7 10 15 10 8 0 15 -4 15 -10z m80 -1 c0 -5 -5 -7 -12 -3 -8 5 -9 0 -5 -16
6 -25 -11 -60 -30 -60 -6 0 -14 -8 -16 -17 -4 -14 -5 -12 -6 5 -1 14 5 22 17
23 16 1 16 2 0 6 -10 2 -18 9 -18 14 0 6 -4 7 -10 4 -5 -3 -10 1 -10 10 0 9 4
14 9 10 5 -3 13 -1 16 5 5 8 12 7 23 -2 10 -7 14 -8 10 -4 -8 10 9 36 23 36 5
0 9 -5 9 -11z m2590 -20 c0 -5 7 -9 16 -9 23 0 12 -67 -17 -94 l-21 -21 5 38
c9 73 -11 46 -22 -30 -6 -42 -14 -79 -16 -81 -3 -3 -21 12 -40 32 -30 32 -35
44 -35 86 0 39 3 48 14 44 11 -4 13 0 9 17 -5 18 -3 21 10 16 10 -4 17 -1 17
6 1 7 6 4 14 -6 13 -17 14 -16 19 2 3 14 11 18 26 14 12 -3 21 -9 21 -14z
m-1270 -5 c0 -14 -3 -14 -15 -4 -8 7 -15 14 -15 16 0 2 7 4 15 4 8 0 15 -7 15
-16z m-214 -7 c5 -13 -30 -154 -41 -165 -7 -7 -6 42 1 117 5 42 11 61 21 61 7
0 16 -6 19 -13z m-266 -7 c0 -5 -4 -10 -10 -10 -5 0 -10 5 -10 10 0 6 5 10 10
10 6 0 10 -4 10 -10z m61 -25 c7 0 14 -6 17 -12 2 -8 -6 -13 -22 -13 -29 0
-39 11 -30 35 5 13 8 14 15 3 5 -7 14 -13 20 -13z m37 -41 l-3 -39 -5 47 c-3
26 -1 43 3 39 5 -5 7 -26 5 -47z m393 34 c1 -7 3 -27 5 -45 4 -36 -18 -66 -41
-57 -27 11 -15 45 19 57 17 7 18 9 2 25 -9 10 -16 22 -16 25 0 13 30 7 31 -5z
m121 -50 c-7 -7 -12 -8 -12 -2 0 6 3 14 7 17 3 4 9 5 12 2 2 -3 -1 -11 -7 -17z
m42 -34 c9 -3 13 -10 10 -15 -3 -5 -2 -9 3 -8 51 9 83 -51 91 -169 5 -84 5
-84 -17 -77 -20 6 -22 5 -12 -13 9 -17 7 -21 -12 -26 -18 -5 -20 -8 -7 -16 14
-9 13 -11 -9 -14 -21 -3 -21 -15 1 -21 27 -9 38 -23 37 -50 0 -11 -3 -14 -6
-7 -2 6 -11 12 -18 12 -11 0 -11 -5 1 -27 13 -26 12 -28 -6 -31 -11 -2 -18 -8
-14 -13 8 -13 -16 -40 -29 -32 -6 3 -7 1 -3 -5 4 -6 13 -9 21 -5 8 3 15 0 15
-6 0 -6 -3 -10 -7 -9 -23 4 -62 -17 -76 -42 -20 -34 -23 -51 -3 -25 13 18 14
18 24 -2 10 -18 7 -21 -25 -31 -21 -6 -38 -10 -38 -9 -1 1 -9 21 -18 44 -11
29 -13 44 -6 49 6 3 9 24 7 45 -2 22 0 39 4 39 4 0 5 7 1 15 -4 12 -9 10 -20
-11 -10 -20 -11 -29 -2 -34 8 -6 8 -13 -1 -30 -12 -21 -13 -22 -22 -5 -9 14
-12 15 -20 4 -9 -13 -7 28 5 93 5 27 17 34 17 10 0 -37 17 -32 18 6 1 25 8 41
22 51 20 14 29 38 9 26 -16 -10 -69 -12 -63 -3 3 4 0 8 -5 8 -6 0 -11 -11 -11
-24 0 -29 -10 -38 -30 -26 -11 7 -11 11 -1 24 15 17 7 36 -15 36 -11 0 -14
-11 -13 -47 3 -56 -7 -83 -30 -84 -9 0 -11 -3 -4 -5 7 -3 10 -11 7 -19 -3 -8
-1 -22 5 -32 8 -14 11 -15 12 -3 1 8 1 18 0 23 0 4 6 7 14 7 8 0 15 7 15 16 0
8 -4 12 -10 9 -5 -3 -10 -4 -10 -1 0 7 38 46 45 46 9 0 -5 -93 -16 -106 -6 -8
-15 -29 -19 -47 -6 -23 -8 -26 -9 -9 -1 12 -6 22 -12 22 -5 0 -8 4 -5 9 3 4
-3 16 -13 25 -18 17 -20 16 -30 -1 -10 -17 -10 -16 -11 4 0 12 6 23 13 26 9 3
9 9 -1 26 -11 18 -10 21 7 21 11 0 23 5 26 11 4 6 0 9 -11 7 -13 -2 -20 6 -25
32 -7 32 -6 33 7 16 8 -11 14 -23 14 -28 0 -4 5 -8 10 -8 14 0 12 38 -2 42 -7
3 -11 19 -10 41 2 21 -2 37 -8 37 -9 0 -8 41 1 60 3 7 4 16 13 80 4 31 15 65
24 77 15 18 95 47 105 37 2 -2 0 -30 -4 -62 -13 -98 -14 -167 -4 -172 9 -4 27
64 39 145 7 52 18 85 27 85 5 0 9 10 9 22 0 20 1 20 19 4 12 -11 21 -13 25 -7
4 5 -2 14 -11 20 -16 9 -16 10 -1 11 9 0 23 -3 32 -6z m-286 -141 c-4 -43 -9
-89 -12 -103 -2 -14 -5 -37 -5 -52 -1 -37 -17 -35 -36 5 -9 17 -22 43 -30 57
-26 43 4 128 53 154 15 9 29 15 33 16 3 0 2 -35 -3 -77z m-1062 -7 c52 -27 53
-28 14 -30 -14 -1 -42 -6 -63 -10 -37 -7 -38 -7 -31 21 6 22 18 40 30 43 0 0
22 -11 50 -24z m264 -50 c0 -2 -9 -2 -20 1 -11 3 -20 9 -20 15 0 5 9 4 20 -2
11 -6 20 -12 20 -14z m-480 -1 c-11 -13 -10 -14 2 -10 8 3 21 -1 28 -9 10 -13
9 -17 -4 -22 -9 -4 -20 -4 -23 0 -3 3 -12 1 -19 -5 -8 -7 -14 -7 -19 1 -10 16
4 48 23 53 9 3 19 5 21 6 2 0 -2 -6 -9 -14z m552 -2 c15 -3 28 -13 31 -24 6
-22 27 -26 27 -4 0 8 5 15 11 15 6 0 8 -8 6 -17 -3 -10 -8 -35 -12 -55 -5 -35
-7 -37 -30 -26 -13 6 -22 15 -19 19 3 5 -2 6 -11 2 -14 -5 -16 0 -13 26 2 25
-3 37 -27 57 -21 18 -24 23 -10 18 11 -4 32 -9 47 -11z m-212 -11 c0 -15 -46
-34 -71 -30 -24 3 -24 4 6 20 32 18 65 23 65 10z m-230 -18 c0 -2 -7 -4 -15
-4 -8 0 -15 4 -15 10 0 5 7 7 15 4 8 -4 15 -8 15 -10z m1049 -129 c12 -48 15
-134 5 -159 -3 -9 -13 -16 -22 -16 -12 0 -13 -3 -4 -12 15 -15 16 -65 0 -74
-8 -5 -9 -2 -5 9 4 11 1 17 -7 17 -8 0 -17 6 -20 13 -3 6 -4 3 -3 -7 1 -10 -4
-21 -10 -23 -9 -3 -13 6 -13 25 0 35 9 45 27 31 8 -7 13 -8 13 -1 0 5 -7 16
-16 23 -14 11 -15 28 -10 109 4 52 10 105 13 118 5 21 7 22 23 7 10 -9 23 -36
29 -60z m-1154 36 c-3 -6 -14 -10 -23 -10 -15 1 -15 2 1 6 9 2 17 9 17 15 0 6
3 9 6 5 3 -3 3 -10 -1 -16z m421 -47 c-15 -16 -36 -6 -36 16 0 15 3 16 23 7
18 -8 21 -14 13 -23z m944 26 c0 -5 -4 -10 -10 -10 -5 0 -10 5 -10 10 0 6 5
10 10 10 6 0 10 -4 10 -10z m-836 -51 c-10 -16 17 -29 38 -18 15 8 18 6 18
-11 0 -22 -4 -24 -28 -11 -10 5 -27 5 -42 -1 l-25 -9 30 -17 30 -17 -25 -3
c-14 -2 -46 6 -70 17 -25 11 -37 20 -27 20 21 1 22 17 1 25 -8 3 -12 10 -9 16
4 6 10 8 14 6 4 -3 13 -1 21 5 22 13 83 12 74 -2z m-644 -16 c0 -5 -7 -17 -15
-27 -13 -17 -15 -18 -15 -3 0 9 -4 17 -10 17 -5 0 -10 5 -10 10 0 6 11 10 25
10 14 0 25 -3 25 -7z m55 -43 c6 -10 -46 -41 -67 -39 -10 0 -10 2 0 6 6 2 12
11 12 18 0 21 44 33 55 15z m2018 -10 c-3 -11 -9 -17 -14 -15 -10 7 -1 35 11
35 5 0 6 -9 3 -20z m-1974 -37 c5 -9 26 -23 48 -30 l38 -12 -40 5 c-50 7 -75
20 -75 39 0 20 17 19 29 -2z m-139 -13 c0 -5 -5 -10 -11 -10 -5 0 -7 5 -4 10
3 6 8 10 11 10 2 0 4 -4 4 -10z m1906 -96 c-2 -16 -4 -32 -5 -35 0 -4 -17 -9
-36 -11 -27 -3 -32 -1 -23 9 6 8 8 29 4 52 -4 29 -2 40 9 45 9 3 12 12 9 23
-4 10 5 2 19 -18 17 -24 25 -46 23 -65z m-1656 56 c0 -5 -4 -10 -10 -10 -5 0
-10 5 -10 10 0 6 5 10 10 10 6 0 10 -4 10 -10z m1270 -78 c0 9 5 20 11 24 8 4
9 -1 4 -15 -5 -15 -2 -26 9 -34 12 -9 13 -16 5 -27 -9 -13 -10 -12 -5 3 5 15
2 17 -17 12 -18 -5 -19 -4 -7 5 12 9 9 11 -15 6 -16 -3 -25 -3 -19 0 6 2 9 17
7 32 l-4 27 15 -25 c11 -19 15 -21 16 -8z m512 -55 c-6 -12 -14 -42 -17 -67
-10 -77 -27 -145 -39 -152 -6 -4 -16 -2 -23 4 -9 7 -17 7 -26 -1 -8 -6 -17 -8
-20 -4 -4 3 -13 0 -21 -6 -11 -10 -17 -8 -25 6 -10 17 -10 16 -11 -4 0 -25
-29 -38 -61 -28 -19 6 -21 4 -16 -14 3 -11 1 -24 -4 -27 -11 -7 -12 -24 -1
-24 5 0 14 11 20 25 7 15 20 25 32 25 27 0 25 -14 -5 -30 -19 -10 -25 -21 -25
-46 0 -71 -31 -88 -51 -26 -6 20 -25 63 -40 96 -16 32 -29 65 -29 73 0 8 -5
13 -12 11 -15 -5 -20 -38 -5 -35 6 1 26 -34 44 -78 32 -80 41 -121 24 -110 -5
3 -16 -4 -25 -16 -16 -23 -16 -20 -29 96 -3 27 -4 26 -12 -14 l-8 -43 -15 43
c-10 30 -12 61 -8 99 4 30 7 79 6 108 -1 58 4 61 53 35 27 -15 29 -18 12 -21
-10 -2 -21 1 -23 7 -2 6 -9 11 -15 11 -7 -1 -2 -9 10 -19 14 -12 19 -22 12
-30 -6 -8 -6 -8 3 -1 7 6 20 10 30 10 22 0 24 27 4 55 -7 11 -17 31 -21 44 -6
21 -5 22 8 10 8 -8 12 -20 9 -28 -4 -10 -1 -13 10 -9 10 4 15 1 14 -10 -1 -12
6 -16 22 -15 18 2 22 -2 23 -30 1 -19 5 -9 9 26 7 57 19 83 27 61 2 -6 10 -20
18 -30 14 -17 15 -14 9 34 -4 33 -3 52 4 52 5 0 8 -8 5 -19 -6 -25 14 -36 34
-19 15 12 16 7 11 -47 -4 -33 -8 -67 -10 -75 -3 -8 -3 -12 -1 -8 2 4 12 4 21
1 15 -6 15 -5 3 10 -8 10 -9 17 -3 17 6 0 14 -5 17 -10 8 -13 25 -3 25 13 0 7
-4 6 -10 -3 -12 -18 -12 -2 0 25 5 11 9 14 9 7 1 -7 6 -10 12 -6 6 3 15 0 20
-7 6 -10 9 -5 10 16 1 17 1 34 0 39 -1 4 6 20 15 33 10 16 12 28 6 32 -10 6
-15 25 -13 50 1 8 9 3 22 -13 18 -22 20 -32 11 -49z m-584 9 c-7 -7 -19 -11
-25 -9 -22 9 -14 23 12 23 21 0 24 -2 13 -14z m-428 -10 c0 -3 -4 -8 -10 -11
-5 -3 -10 -1 -10 4 0 6 5 11 10 11 6 0 10 -2 10 -4z m785 -14 c-3 -3 -11 0
-18 7 -9 10 -8 11 6 5 10 -3 15 -9 12 -12z m-568 -24 c-3 -7 -5 -2 -5 12 0 14
2 19 5 13 2 -7 2 -19 0 -25z m211 17 c12 1 22 1 22 1 0 -1 -7 -19 -16 -41 -11
-29 -14 -32 -11 -12 5 30 -18 39 -26 10 -3 -10 -5 0 -6 22 0 22 3 35 7 29 4
-6 17 -10 30 -9z m-152 -85 c17 0 19 -17 2 -23 -10 -3 -9 -13 5 -41 20 -43 20
-46 7 -46 -6 0 -19 15 -30 33 -14 22 -20 27 -20 14 0 -14 -5 -17 -21 -12 -16
5 -19 4 -14 -5 5 -9 1 -10 -16 -5 -40 12 -41 20 -4 61 24 27 35 34 35 22 0
-11 5 -15 15 -12 9 4 15 16 14 28 -1 11 -1 35 1 51 3 22 5 17 7 -17 3 -34 8
-48 19 -48z m224 86 c0 -3 -4 -8 -10 -11 -5 -3 -10 -1 -10 4 0 6 5 11 10 11 6
0 10 -2 10 -4z m95 -6 c3 -5 -3 -10 -15 -10 -11 0 -23 -7 -27 -16 -10 -28 -53
-69 -53 -52 0 9 7 22 16 29 9 7 20 23 25 36 9 23 43 32 54 13z m43 -15 c-2
-15 -6 -21 -11 -16 -6 6 -7 17 -4 25 9 24 17 19 15 -9z m-1632 -32 c-10 -10
-19 5 -10 18 6 11 8 11 12 0 2 -7 1 -15 -2 -18z m1229 17 c-3 -5 -12 -10 -18
-10 -7 0 -6 4 3 10 19 12 23 12 15 0z m722 -6 c2 -6 -3 -11 -12 -11 -8 0 -15
7 -15 15 0 15 22 12 27 -4z m-990 -16 c-3 -8 -6 -5 -6 6 -1 11 2 17 5 13 3 -3
4 -12 1 -19z m-811 -2 c10 -8 16 -18 11 -22 -4 -4 -7 -2 -7 4 0 7 -15 12 -36
12 -21 0 -33 4 -29 10 9 14 38 12 61 -4z m409 -12 c19 -8 35 -21 35 -30 0 -8
3 -13 8 -10 18 11 39 -20 34 -52 -5 -34 -19 -42 -28 -17 -4 8 -11 15 -16 15
-6 0 -7 -8 -3 -17 4 -10 9 -23 12 -29 7 -18 -30 -27 -39 -9 -5 8 -14 15 -20
15 -6 0 -19 7 -28 15 -16 14 -20 13 -43 -15 -14 -16 -28 -30 -31 -30 -3 0 -6
26 -6 59 0 66 14 85 61 86 16 0 29 5 29 10 1 20 -40 16 -111 -10 -94 -34 -100
-37 -89 -55 6 -10 12 -11 22 -2 8 6 26 16 42 22 l28 10 -7 -52 c-8 -61 -25
-88 -25 -40 0 36 -25 45 -35 12 -7 -23 -21 -25 -40 -6 -11 10 -11 16 -2 26 10
10 8 12 -5 7 -21 -7 -23 4 -6 21 8 8 9 12 1 12 -6 0 -16 -12 -22 -27 l-11 -28
5 28 c6 29 -3 35 -23 15 -15 -15 -26 -4 -18 18 4 11 13 14 30 10 24 -6 168 44
191 66 12 11 60 3 110 -18z m815 0 c0 -8 -6 -14 -12 -14 -10 0 -9 -3 1 -9 9
-6 10 -14 4 -25 -8 -15 -11 -15 -27 3 -17 19 -17 21 -2 36 9 9 16 21 16 26 0
6 5 7 10 4 6 -3 10 -13 10 -21z m-1003 10 c-3 -3 -12 -4 -19 -1 -8 3 -5 6 6 6
11 1 17 -2 13 -5z m624 -54 l-9 -45 -1 46 c-1 25 2 49 6 53 12 12 13 -6 4 -54z
m234 49 c11 -17 2 -18 -19 -3 -17 12 -17 14 -4 14 9 0 20 -5 23 -11z m-373
-34 c-2 -14 -8 -25 -13 -25 -12 0 -11 7 1 31 14 26 18 24 12 -6z m-707 -1 c15
-11 17 -18 9 -32 -6 -9 -20 -17 -30 -17 -10 0 -27 -9 -37 -20 -17 -18 -18 -18
-13 -2 3 10 -1 25 -9 33 -22 23 -18 32 18 43 42 12 39 12 62 -5z m99 7 c3 -5
-8 -11 -24 -13 -29 -4 -37 1 -23 15 9 10 41 9 47 -2z m1163 -13 c-3 -8 -6 -5
-6 6 -1 11 2 17 5 13 3 -3 4 -12 1 -19z m123 3 c0 -5 -7 -14 -15 -21 -12 -10
-15 -10 -15 2 0 8 3 18 7 21 9 10 23 9 23 -2z m-210 -49 c0 -13 -3 -12 -15 4
-19 25 -19 40 0 24 8 -7 15 -20 15 -28z m-373 6 c-3 -8 -6 -5 -6 6 -1 11 2 17
5 13 3 -3 4 -12 1 -19z m606 4 c5 12 7 -1 11 -77 1 -16 -1 -46 -4 -65 l-6 -35
-23 43 c-18 36 -21 52 -15 85 4 23 7 46 5 51 -1 5 4 4 12 -3 12 -9 16 -9 20 1z
m-896 -49 c-3 -10 -5 -4 -5 12 0 17 2 24 5 18 2 -7 2 -21 0 -30z m191 12 c13
-29 5 -33 -14 -7 -15 20 -18 32 -6 32 5 0 14 -11 20 -25z m246 3 c-3 -13 -3
-20 1 -16 5 5 14 -1 22 -12 8 -11 21 -20 29 -20 8 0 14 -7 14 -16 0 -14 3 -14
15 -4 11 9 15 9 15 1 0 -6 -6 -14 -14 -17 -9 -3 -12 -12 -9 -21 4 -11 2 -14
-5 -9 -7 4 -12 15 -12 25 0 10 -9 21 -21 24 -15 4 -19 2 -15 -9 7 -19 -4 -18
-20 4 -20 26 -17 92 3 92 3 0 1 -10 -3 -22z m146 -10 c0 -16 -3 -19 -11 -11
-6 6 -8 16 -5 22 11 17 16 13 16 -11z m-735 -18 c3 -5 2 -16 -2 -24 -11 -20
-36 -4 -27 17 7 19 20 22 29 7z m229 -6 c10 -27 7 -36 -9 -20 -8 8 -15 19 -15
25 0 17 17 13 24 -5z m673 -16 c-3 -8 -6 -5 -6 6 -1 11 2 17 5 13 3 -3 4 -12
1 -19z m63 -4 c0 -8 -4 -14 -10 -14 -5 0 -10 9 -10 21 0 11 5 17 10 14 6 -3
10 -13 10 -21z m1787 -1 c-13 -3 -16 -10 -11 -26 6 -22 6 -22 -10 -2 -21 27
-20 30 12 32 15 0 19 -1 9 -4z m-2525 -43 c-4 -3 -10 -9 -14 -15 -4 -5 -8 5
-8 24 0 33 1 34 14 15 8 -10 11 -21 8 -24z m2058 34 c0 -3 -5 -11 -12 -18 -16
-16 -53 -9 -39 8 10 11 51 19 51 10z m-2210 -25 c0 -6 -4 -7 -10 -4 -5 3 -10
11 -10 16 0 6 5 7 10 4 6 -3 10 -11 10 -16z m2637 -16 c0 -9 -5 -9 -18 3 -10
9 -16 21 -13 25 7 11 31 -11 31 -28z m-2587 -13 c6 -11 7 -20 2 -20 -6 0 -12
9 -15 20 -3 11 -3 20 -1 20 2 0 8 -9 14 -20z m468 -5 c-3 -3 -9 2 -12 12 -6
14 -5 15 5 6 7 -7 10 -15 7 -18z m42 -10 c0 -5 -5 -3 -10 5 -5 8 -10 20 -10
25 0 6 5 3 10 -5 5 -8 10 -19 10 -25z m65 5 c3 -5 1 -10 -4 -10 -6 0 -11 5
-11 10 0 6 2 10 4 10 3 0 8 -4 11 -10z m918 -107 c-13 -2 -33 -2 -45 0 -13 2
-3 4 22 4 25 0 35 -2 23 -4z m135 0 c-15 -2 -42 -2 -60 0 -18 2 -6 4 27 4 33
0 48 -2 33 -4z m-551 -35 c-3 -7 -5 -2 -5 12 0 14 2 19 5 13 2 -7 2 -19 0 -25z
m1490 16 c-3 -3 -12 -4 -19 -1 -8 3 -5 6 6 6 11 1 17 -2 13 -5z m-1497 -45 c0
-5 -4 -9 -10 -9 -5 0 -10 7 -10 16 0 8 5 12 10 9 6 -3 10 -10 10 -16z m893 14
c-7 -2 -19 -2 -25 0 -7 3 -2 5 12 5 14 0 19 -2 13 -5z m-223 -23 c-8 -5 -46
-9 -85 -8 -65 1 -67 1 -25 8 73 11 128 11 110 0z m-470 -62 c-18 -15 -40 -18
-116 -18 -93 0 -133 15 -51 19 23 1 60 5 82 9 22 4 55 7 74 8 l34 1 -23 -19z
m1543 -5 c-7 -2 -21 -2 -30 0 -10 3 -4 5 12 5 17 0 24 -2 18 -5z m-285 -25
c-25 -7 -51 -7 -75 0 -35 9 -31 10 37 10 68 0 72 -1 38 -10z m-420 -25 c-10
-2 -26 -2 -35 0 -10 3 -2 5 17 5 19 0 27 -2 18 -5z"/>
<path d="M1521 2964 c0 -11 3 -14 6 -6 3 7 2 16 -1 19 -3 4 -6 -2 -5 -13z"/>
<path d="M645 1770 c-3 -5 3 -10 15 -10 12 0 18 5 15 10 -3 6 -10 10 -15 10
-5 0 -12 -4 -15 -10z"/>
<path d="M510 1750 c0 -5 7 -10 16 -10 8 0 12 5 9 10 -3 6 -10 10 -16 10 -5 0
-9 -4 -9 -10z"/>
<path d="M620 1740 c0 -5 5 -10 10 -10 6 0 10 5 10 10 0 6 -4 10 -10 10 -5 0
-10 -4 -10 -10z"/>
<path d="M660 1726 c0 -9 5 -16 10 -16 6 0 10 4 10 9 0 6 -4 13 -10 16 -5 3
-10 -1 -10 -9z"/>
<path d="M641 1433 c-1 -12 4 -25 9 -28 12 -7 12 2 0 30 -8 19 -9 19 -9 -2z"/>
<path d="M688 1443 c6 -2 18 -2 25 0 6 3 1 5 -13 5 -14 0 -19 -2 -12 -5z"/>
<path d="M478 1415 c-4 -18 0 -29 13 -35 17 -9 17 -8 7 22 -14 43 -15 43 -20
13z"/>
<path d="M725 1430 c-3 -5 -1 -10 4 -10 6 0 11 5 11 10 0 6 -2 10 -4 10 -3 0
-8 -4 -11 -10z"/>
<path d="M630 1379 c0 -5 4 -8 9 -5 5 3 11 -3 14 -14 3 -11 11 -20 19 -19 10
0 10 2 1 6 -7 2 -13 13 -13 24 0 10 -7 19 -15 19 -8 0 -15 -5 -15 -11z"/>
<path d="M593 1353 c9 -2 25 -2 35 0 9 3 1 5 -18 5 -19 0 -27 -2 -17 -5z"/>
<path d="M524 1343 c3 -4 -1 -15 -11 -25 -15 -17 -15 -18 10 -18 26 0 64 -39
48 -50 -5 -3 -3 -11 5 -18 11 -10 13 -7 10 19 -3 27 -1 30 18 25 23 -5 22 -5
-33 33 -11 8 -18 18 -16 22 3 4 -5 9 -16 12 -12 3 -18 3 -15 0z"/>
<path d="M610 1336 c0 -2 9 -6 20 -9 11 -3 20 -1 20 4 0 5 -9 9 -20 9 -11 0
-20 -2 -20 -4z"/>
<path d="M723 1325 c0 -8 4 -15 9 -15 4 0 8 4 8 9 0 6 -4 12 -8 15 -5 3 -9 -1
-9 -9z"/>
<path d="M445 1309 c-4 -6 -5 -12 -2 -15 2 -3 7 2 10 11 7 17 1 20 -8 4z"/>
<path d="M770 1276 c0 -3 9 -10 20 -16 11 -6 20 -8 20 -6 0 3 -9 10 -20 16
-11 6 -20 8 -20 6z"/>
<path d="M1870 1470 c0 -5 4 -10 9 -10 6 0 13 5 16 10 3 6 -1 10 -9 10 -9 0
-16 -4 -16 -10z"/>
<path d="M1880 1446 c0 -2 7 -7 16 -10 8 -3 12 -2 9 4 -6 10 -25 14 -25 6z"/>
<path d="M1016 1565 c-3 -9 -6 -22 -5 -28 0 -7 5 -1 10 12 5 13 8 26 5 28 -2
2 -6 -3 -10 -12z"/>
<path d="M999 1506 c-1 -6 -3 -27 -4 -47 -1 -20 -5 -48 -9 -62 -7 -29 10 -39
20 -12 9 22 17 18 31 -12 9 -19 10 -29 2 -34 -8 -5 -8 -8 0 -10 8 -3 9 -24 2
-79 -6 -41 -13 -100 -17 -130 -3 -30 -11 -58 -16 -61 -7 -4 -6 -9 2 -14 6 -4
9 -13 6 -21 -3 -8 -1 -14 4 -14 6 0 10 4 10 8 0 5 11 14 25 20 20 9 24 18 23
48 -1 19 4 39 11 44 9 5 10 10 2 14 -14 9 -15 56 -1 56 6 0 10 5 10 10 0 6 -9
10 -20 10 -18 0 -18 2 -3 48 22 68 28 112 14 112 -7 0 -9 -4 -6 -10 3 -5 1
-10 -5 -10 -8 0 -10 9 -6 24 4 15 1 26 -7 29 -9 3 -9 8 2 18 10 11 15 11 18 1
3 -6 9 -9 15 -6 5 3 -6 17 -26 30 -19 13 -37 32 -40 42 -7 20 -35 26 -37 8z"/>
<path d="M1092 1095 c0 -16 2 -22 5 -12 2 9 2 23 0 30 -3 6 -5 -1 -5 -18z"/>
<path d="M1025 950 c-3 -5 -3 -14 0 -20 3 -6 -4 -10 -17 -10 -21 -1 -21 -2 7
-17 16 -9 35 -22 43 -29 16 -17 32 -18 32 -3 0 5 -4 8 -9 5 -5 -3 -11 4 -14
15 -3 12 -10 18 -16 14 -14 -8 -14 8 -1 21 8 8 6 15 -4 23 -10 8 -16 9 -21 1z"/>
<path d="M1030 826 c0 -9 5 -16 10 -16 6 0 10 4 10 9 0 6 -4 13 -10 16 -5 3
-10 -1 -10 -9z"/>
<path d="M1621 1106 c-9 -11 -10 -20 -1 -36 10 -18 13 -19 25 -6 19 18 19 30
1 45 -10 9 -16 8 -25 -3z m11 -18 c-7 -7 -12 -8 -12 -2 0 14 12 26 19 19 2 -3
-1 -11 -7 -17z"/>
<path d="M1780 1099 c0 -5 5 -7 10 -4 6 3 10 8 10 11 0 2 -4 4 -10 4 -5 0 -10
-5 -10 -11z"/>
<path d="M1641 1004 c0 -11 3 -14 6 -6 3 7 2 16 -1 19 -3 4 -6 -2 -5 -13z"/>
<path d="M1905 770 c-3 -5 1 -10 9 -10 9 0 16 5 16 10 0 6 -4 10 -9 10 -6 0
-13 -4 -16 -10z"/>
<path d="M1730 530 c0 -5 5 -10 11 -10 5 0 7 5 4 10 -3 6 -8 10 -11 10 -2 0
-4 -4 -4 -10z"/>
<path d="M1720 495 c7 -8 17 -12 22 -9 6 4 5 10 -3 15 -22 14 -33 10 -19 -6z"/>
<path d="M1722 340 c0 -14 2 -19 5 -12 2 6 2 18 0 25 -3 6 -5 1 -5 -13z"/>
<path d="M2840 2860 c0 -5 -6 -10 -14 -10 -8 0 -16 -7 -20 -15 -7 -20 8 -19
28 1 15 15 21 34 11 34 -3 0 -5 -4 -5 -10z"/>
<path d="M2985 2689 c-4 -6 -5 -13 -2 -16 7 -7 27 6 27 18 0 12 -17 12 -25 -2z"/>
<path d="M2827 2573 c-4 -3 -7 -11 -7 -17 0 -6 5 -5 12 2 6 6 9 14 7 17 -3 3
-9 2 -12 -2z"/>
<path d="M2790 2546 c0 -8 4 -17 9 -20 5 -4 7 3 4 14 -6 23 -13 26 -13 6z"/>
<path d="M2953 2344 c-19 -20 -16 -57 7 -77 21 -17 50 -23 50 -9 -1 17 -19 34
-30 27 -8 -5 -11 3 -9 28 4 42 -1 50 -18 31z"/>
<path d="M3001 2323 c-21 -23 -2 -29 20 -7 14 14 16 21 7 21 -8 0 -20 -7 -27
-14z"/>
<path d="M3105 2277 c-9 -32 11 -80 30 -73 8 3 15 1 15 -5 0 -6 5 -7 11 -3 8
5 6 10 -5 16 -9 5 -21 6 -28 2 -8 -5 -9 -2 -5 9 3 10 3 17 -2 17 -4 0 -6 14
-3 30 5 35 -5 40 -13 7z"/>
<path d="M3049 2253 c-6 -36 7 -67 23 -57 8 5 9 1 5 -10 -4 -9 -3 -14 2 -11 5
3 12 1 16 -5 3 -5 12 -10 18 -10 7 0 4 7 -7 15 -10 8 -16 21 -13 29 4 10 1 13
-8 10 -17 -7 -41 6 -28 15 5 3 7 17 3 31 -6 24 -7 24 -11 -7z"/>
<path d="M3162 2268 c-15 -15 -15 -28 -1 -28 5 0 8 4 5 9 -4 5 0 11 6 14 7 2
10 7 7 10 -3 4 -11 1 -17 -5z"/>
<path d="M3006 2155 c-9 -9 -21 -13 -28 -9 -9 5 -8 2 1 -10 11 -13 16 -14 22
-4 5 7 18 13 30 13 12 0 23 6 25 13 1 7 0 8 -3 2 -3 -8 -9 -8 -18 0 -9 8 -17
6 -29 -5z"/>
<path d="M2940 2124 c-14 -16 -10 -24 12 -28 7 -1 19 -5 25 -9 16 -10 5 22
-13 40 -9 10 -15 9 -24 -3z"/>
<path d="M3010 2130 c0 -5 5 -10 10 -10 6 0 10 5 10 10 0 6 -4 10 -10 10 -5 0
-10 -4 -10 -10z"/>
<path d="M3051 2101 c-9 -6 -10 -11 -2 -15 6 -4 11 -3 11 3 0 5 8 12 18 14 12
3 13 5 2 6 -8 0 -21 -3 -29 -8z"/>
<path d="M2446 2061 c-3 -5 1 -11 9 -14 9 -4 12 -1 8 9 -6 16 -10 17 -17 5z"/>
<path d="M2970 2048 c-12 -22 -12 -22 6 -6 10 10 15 20 12 24 -4 3 -12 -5 -18
-18z"/>
<path d="M3026 2053 c-6 -14 -5 -15 5 -6 7 7 10 15 7 18 -3 3 -9 -2 -12 -12z"/>
<path d="M2916 2007 c3 -10 9 -15 12 -12 3 3 0 11 -7 18 -10 9 -11 8 -5 -6z"/>
<path d="M2786 1993 c-6 -14 -5 -15 5 -6 7 7 10 15 7 18 -3 3 -9 -2 -12 -12z"/>
<path d="M2416 1965 c-3 -8 -1 -15 5 -15 6 0 8 -4 4 -9 -3 -5 -1 -12 4 -15 5
-4 12 -2 16 4 3 5 16 10 28 11 l22 0 -22 9 c-13 5 -23 14 -23 20 0 16 -27 12
-34 -5z"/>
<path d="M2470 1969 c-12 -9 -12 -10 4 -5 10 4 25 1 33 -5 7 -7 16 -9 20 -5
15 15 -37 29 -57 15z"/>
<path d="M2430 1909 c-16 -4 -19 -7 -7 -8 9 -1 17 -6 17 -13 0 -9 3 -9 11 -1
18 18 6 30 -21 22z"/>
<path d="M2413 1855 c11 -23 35 -40 44 -32 5 6 -37 57 -47 57 -4 0 -3 -11 3
-25z"/>
<path d="M2896 1767 c3 -10 9 -15 12 -12 3 3 0 11 -7 18 -10 9 -11 8 -5 -6z"/>
<path d="M2175 1759 c-4 -6 -5 -12 -2 -15 2 -3 7 2 10 11 7 17 1 20 -8 4z"/>
<path d="M2131 1714 c0 -11 3 -14 6 -6 3 7 2 16 -1 19 -3 4 -6 -2 -5 -13z"/>
<path d="M2927 1723 c-11 -10 -8 -33 4 -33 5 0 8 4 4 9 -3 6 3 14 12 20 15 9
15 10 2 11 -9 0 -19 -3 -22 -7z"/>
<path d="M2457 1696 c-15 -12 -16 -14 -2 -20 11 -4 14 -13 9 -30 -6 -24 -4
-25 26 -21 39 5 44 9 36 31 -6 16 -8 15 -21 -2 -13 -18 -14 -18 -8 4 3 12 1
22 -5 22 -6 0 -12 6 -14 14 -2 12 -6 12 -21 2z"/>
<path d="M2105 1691 c3 -5 -1 -11 -7 -14 -7 -2 -11 -7 -8 -10 3 -3 13 0 23 8
16 11 16 13 2 19 -9 3 -14 2 -10 -3z"/>
<path d="M2403 1688 c4 -11 0 -21 -10 -26 -11 -6 -12 -11 -4 -16 6 -4 11 -2
11 3 0 6 5 11 10 11 6 0 10 -7 10 -15 0 -8 4 -15 10 -15 6 0 5 11 -2 28 -14
31 -34 57 -25 30z"/>
<path d="M2848 1348 c5 -5 16 -8 23 -6 8 3 3 7 -10 11 -17 4 -21 3 -13 -5z"/>
<path d="M2608 1345 c-3 -3 -18 -8 -34 -11 -32 -6 -40 -11 -31 -20 7 -8 75 14
82 27 7 10 -8 13 -17 4z"/>
<path d="M2832 1312 c0 -24 -10 -357 -11 -374 -1 -4 -19 -11 -41 -14 -29 -5
-49 -17 -71 -41 l-30 -35 21 -15 c12 -9 34 -15 48 -15 15 0 32 -3 37 -6 16
-10 167 -11 193 -1 13 5 21 5 18 0 -3 -4 17 -8 45 -7 56 1 78 -17 80 -63 0
-16 3 -20 6 -11 3 8 14 23 24 33 18 17 19 17 19 -2 0 -11 4 -22 8 -25 4 -2 7
12 5 32 -2 30 -1 32 5 12 4 -14 14 -25 22 -26 28 -1 70 -16 70 -25 0 -5 8 -9
18 -9 14 0 15 2 2 10 -13 8 -12 10 3 10 9 0 17 -5 17 -10 0 -8 29 5 59 27 3 2
-4 10 -15 17 -27 20 -11 30 25 18 17 -6 31 -7 31 -2 0 14 -136 53 -143 41 -2
-3 -2 0 0 8 4 17 -34 51 -57 51 -11 0 -24 15 -34 40 -14 35 -21 41 -68 54 -29
8 -74 17 -100 20 -43 5 -49 3 -65 -20 -47 -66 -48 -67 -80 -60 l-31 7 4 199
c2 109 0 201 -5 204 -5 3 -9 -7 -9 -22z m168 -402 c0 -5 -4 -10 -10 -10 -5 0
-10 5 -10 10 0 6 5 10 10 10 6 0 10 -4 10 -10z m-234 -15 c-11 -8 -24 -15 -28
-15 -5 0 -8 -8 -6 -17 2 -10 -4 -19 -14 -21 -24 -5 -23 8 4 41 12 15 31 27 42
27 21 -1 21 -1 2 -15z m147 0 c-3 -9 -8 -14 -10 -11 -3 3 -2 9 2 15 9 16 15
13 8 -4z m-138 -21 c-9 -9 -19 -13 -23 -10 -3 4 0 11 8 16 24 15 33 11 15 -6z
m114 -44 c0 -10 -3 -8 -9 5 -12 27 -12 43 0 25 5 -8 9 -22 9 -30z m336 22 c-3
-3 -11 0 -18 7 -9 10 -8 11 6 5 10 -3 15 -9 12 -12z m95 -46 c-7 -7 -14 -6
-21 1 -9 9 -7 12 9 10 14 -1 18 -5 12 -11z m-90 -12 c0 -3 -7 -12 -15 -20 -12
-13 -15 -13 -15 -1 0 7 3 17 7 20 8 8 23 9 23 1z"/>
<path d="M2631 1304 c0 -11 3 -14 6 -6 3 7 2 16 -1 19 -3 4 -6 -2 -5 -13z"/>
<path d="M2214 1246 c-11 -12 -29 -27 -40 -34 -10 -7 -5 -6 12 2 29 14 61 43
53 49 -2 2 -13 -6 -25 -17z"/>
<path d="M2180 1060 c0 -5 5 -10 10 -10 6 0 10 5 10 10 0 6 -4 10 -10 10 -5 0
-10 -4 -10 -10z"/>
<path d="M2486 885 c-14 -11 -23 -12 -33 -4 -17 14 -17 -2 0 -20 10 -11 9 -13
-5 -8 -12 4 -18 1 -18 -8 0 -19 29 -20 36 -1 3 8 14 16 25 19 10 3 19 12 19
21 0 19 0 19 -24 1z"/>
<path d="M2835 774 c23 -21 35 -24 83 -22 32 1 63 -1 70 -6 7 -4 12 -2 12 6 0
9 -17 14 -50 16 -28 2 -71 9 -96 17 l-45 13 26 -24z"/>
<path d="M2164 775 c3 -9 -3 -19 -14 -25 -11 -6 -20 -18 -20 -28 1 -16 1 -16
11 1 5 9 16 17 24 17 10 0 14 9 13 25 -1 14 -6 25 -11 25 -5 0 -7 -7 -3 -15z"/>
<path d="M2681 768 c-12 -19 -11 -20 8 -15 13 3 19 1 15 -5 -4 -6 2 -8 12 -6
25 4 24 29 -2 38 -15 6 -24 3 -33 -12z"/>
<path d="M2565 770 c-3 -6 1 -7 9 -4 18 7 21 14 7 14 -6 0 -13 -4 -16 -10z"/>
<path d="M2770 753 c-24 -5 -40 -19 -40 -37 0 -5 7 -3 15 4 20 17 32 5 15 -15
-11 -13 -10 -19 5 -35 19 -21 32 -22 52 -3 15 14 17 27 3 18 -14 -8 -13 8 1
22 7 7 21 8 40 3 22 -6 29 -5 29 5 0 7 -7 15 -15 19 -8 3 -15 1 -15 -4 0 -6
-4 -10 -10 -10 -5 0 -6 8 -3 17 7 17 6 17 -19 1 -25 -16 -26 -16 -21 2 3 11 1
19 -3 19 -5 -1 -20 -4 -34 -6z m17 -65 c-3 -7 -5 -2 -5 12 0 14 2 19 5 13 2
-7 2 -19 0 -25z"/>
<path d="M2650 742 c0 -12 19 -26 26 -19 2 2 -2 10 -11 17 -9 8 -15 8 -15 2z"/>
<path d="M3010 729 c0 -11 5 -17 10 -14 6 3 10 13 10 21 0 8 -4 14 -10 14 -5
0 -10 -9 -10 -21z"/>
<path d="M2620 676 c0 -2 14 -6 30 -8 17 -3 30 -1 30 4 0 4 -13 8 -30 8 -16 0
-30 -2 -30 -4z"/>
<path d="M2356 561 c-4 -7 -5 -15 -2 -18 9 -9 19 4 14 18 -4 11 -6 11 -12 0z"/>
<path d="M3425 530 c3 -5 8 -10 11 -10 2 0 4 5 4 10 0 6 -5 10 -11 10 -5 0 -7
-4 -4 -10z"/>
<path d="M2310 508 c0 -9 5 -20 10 -23 13 -8 13 5 0 25 -8 13 -10 13 -10 -2z"/>
<path d="M2798 363 c12 -2 30 -2 40 0 9 3 -1 5 -23 4 -22 0 -30 -2 -17 -4z"/>
<path d="M3085 160 c-8 -13 25 -13 45 0 12 8 9 10 -12 10 -15 0 -30 -4 -33
-10z"/>
<path d="M3183 163 c20 -2 54 -2 75 0 20 2 3 4 -38 4 -41 0 -58 -2 -37 -4z"/>
</g>
</svg>
